<?xml version="1.0" encoding="iso-8859-1"?>
<!-- Generator: Adobe Illustrator 19.0.0, SVG Export Plug-In . SVG Version: 6.00 Build 0)  -->
<svg version="1.1" id="Capa_1" xmlns="http://www.w3.org/2000/svg" xmlns:xlink="http://www.w3.org/1999/xlink" x="0px" y="0px"
	 viewBox="0 0 469.333 469.333" style="enable-background:new 0 0 469.333 469.333;" xml:space="preserve">
<g transform="translate(21 21)">
	<path style="fill:#28006E;" d="M256.333,21.667h149.333c23.564,0,42.667,19.103,42.667,42.667v256
		c0,22.632-8.99,44.337-24.994,60.34c-16.003,16.003-37.708,24.994-60.34,24.994H256.333V21.667L256.333,21.667z"/>
	<path style="fill:#F57C04;" d="M320.333,320.333l-256-256l0,0c16.974-16.974,39.995-26.51,64-26.51s47.026,9.536,64,26.51
		l213.333,213.333h-85.333V320.333z"/>
	<path style="fill:#DA5D00;" d="M74.997,53.673l0.007-0.007c5.889-5.889,15.437-5.889,21.326,0L230.59,187.925
		c5.889,5.889,5.889,15.437,0,21.326l-0.007,0.007c-5.889,5.889-15.437,5.889-21.326,0L74.997,75
		C69.108,69.111,69.108,59.563,74.997,53.673z"/>
	<path style="fill:#E15E00;" d="M256.337,213.667L256.337,213.667c11.782-11.782,30.885-11.782,42.667,0l33.828,33.828
		c11.782,11.782,11.782,30.885,0,42.667l0,0c-11.782,11.782-30.885,11.782-42.667,0l-33.828-33.828
		C244.555,244.552,244.555,225.449,256.337,213.667z"/>
	<path style="fill:#D22C49;" d="M307.005,289.938c-5.182,9.297-7.935,19.752-8.005,30.395c0.005,24.404,13.887,46.681,35.793,57.437
		s48.022,8.117,67.334-6.802s28.459-39.523,23.583-63.435c-0.128-0.636-0.402-1.211-0.55-1.841
		c-5.96-25.85-27.325-45.295-53.621-48.801C345.243,253.385,319.53,266.553,307.005,289.938L307.005,289.938z M320.333,320.333
		c0-17.257,10.395-32.815,26.339-39.419c15.943-6.604,34.295-2.954,46.498,9.249s15.853,30.554,9.249,46.498
		C395.815,352.605,380.257,363,363,363c-11.348,0.107-22.263-4.353-30.288-12.378C324.687,342.597,320.226,331.682,320.333,320.333
		L320.333,320.333z"/>
	<path style="fill:#4A19A0;" d="M277.667,0.333c0-5.658-2.248-11.084-6.248-15.085C267.417-18.752,261.991-21,256.333-21H43v384
		c0,23.564,19.103,42.667,42.667,42.667h256l21.333,0v0c-47.128,0-85.333-38.205-85.333-85.333h0L277.667,0.333z"/>
	<path style="fill:#2B0065;" d="M235,0.334L235,0.334c11.783,0,21.334,9.551,21.334,21.333v362.664
		c0,11.782-9.551,21.333-21.333,21.333H235c-11.782,0-21.333-9.551-21.333-21.333V21.667C213.667,9.885,223.218,0.334,235,0.334z"/>
	<path style="fill:#724AC0;" d="M235-21H0.333c-5.658,0-11.084,2.247-15.085,6.248S-21-5.325-21,0.333V427
		c0,11.782,9.551,21.333,21.333,21.333v-10.667c-0.004-3.813,2.029-7.339,5.33-9.246s7.371-1.908,10.673,0
		c3.302,1.908,5.334,5.433,5.33,9.246v10.667h170.667v-10.667c-0.004-3.813,2.029-7.339,5.33-9.246
		c3.302-1.908,7.371-1.908,10.673,0c3.302,1.908,5.334,5.433,5.33,9.246v10.667c11.782,0,21.333-9.551,21.333-21.333V0.333
		c0-5.658,2.247-11.084,6.248-15.085S250.675-21,256.333-21H235z M21.667,373.667c0.004,3.813-2.029,7.339-5.33,9.246
		c-3.302,1.908-7.371,1.908-10.673,0s-5.334-5.433-5.33-9.246v-21.333c-0.004-3.813,2.029-7.339,5.33-9.246
		c3.302-1.908,7.371-1.908,10.673,0c3.302,1.908,5.334,5.433,5.33,9.246V373.667z M21.667,288.333
		C21.661,294.22,16.887,298.99,11,298.99S0.339,294.22,0.333,288.333V267c0.006-5.887,4.78-10.656,10.667-10.656
		S21.661,261.113,21.667,267V288.333z M21.667,203c0.004,3.813-2.029,7.339-5.33,9.246c-3.302,1.908-7.371,1.908-10.673,0
		S0.33,206.813,0.333,203v-21.333c-0.004-3.813,2.029-7.339,5.33-9.246s7.371-1.908,10.673,0c3.302,1.908,5.334,5.433,5.33,9.246
		V203z M21.667,117.667c0.004,3.813-2.029,7.339-5.33,9.246c-3.302,1.908-7.371,1.908-10.673,0s-5.334-5.433-5.33-9.246V96.333
		c-0.004-3.813,2.029-7.339,5.33-9.246s7.371-1.908,10.673,0c3.302,1.908,5.334,5.433,5.33,9.246V117.667z M21.667,32.333
		C21.661,38.22,16.887,42.99,11,42.99S0.339,38.22,0.333,32.333V11C0.339,5.113,5.113,0.344,11,0.344S21.661,5.113,21.667,11V32.333
		z M213.667,373.667c0,5.891-4.776,10.667-10.667,10.667c-5.891,0-10.667-4.776-10.667-10.667v-21.333
		c-0.004-3.813,2.029-7.339,5.33-9.246c3.302-1.908,7.371-1.908,10.673,0c3.302,1.908,5.334,5.433,5.33,9.246V373.667z
		 M213.667,288.333c-0.006,5.887-4.78,10.656-10.667,10.656c-5.887,0-10.661-4.769-10.667-10.656V267
		c0.006-5.887,4.78-10.656,10.667-10.656c5.887,0,10.661,4.769,10.667,10.656V288.333z M213.667,203
		c0.004,3.813-2.029,7.339-5.33,9.246c-3.302,1.908-7.371,1.908-10.673,0c-3.302-1.908-5.334-5.433-5.33-9.246v-21.333
		c-0.004-3.813,2.029-7.339,5.33-9.246c3.302-1.908,7.371-1.908,10.673,0c3.302,1.908,5.334,5.433,5.33,9.246V203z M213.667,117.667
		c0.004,3.813-2.029,7.339-5.33,9.246c-3.302,1.908-7.371,1.908-10.673,0c-3.302-1.908-5.334-5.433-5.33-9.246V96.333
		c-0.004-3.813,2.029-7.339,5.33-9.246c3.302-1.908,7.371-1.908,10.673,0c3.302,1.908,5.334,5.433,5.33,9.246V117.667z
		 M213.667,32.333C213.667,38.224,208.891,43,203,43c-5.891,0-10.667-4.776-10.667-10.667V11c0-5.891,4.776-10.667,10.667-10.667
		c5.891,0,10.667,4.776,10.667,10.667V32.333z"/>
	<path style="fill:#28006E;" d="M277.667,134.581c-4.002-0.005-7.841,1.585-10.667,4.419L53.667,352.333
		c-3.811,3.811-5.299,9.365-3.904,14.571c1.395,5.206,5.461,9.272,10.667,10.667c5.206,1.395,10.76-0.093,14.571-3.904L277.667,171
		V134.581z"/>
	<g transform="translate(64)">
		<path style="fill:#5628B4;" d="M0.333,170.997h85.334c11.782,0,21.333,9.551,21.333,21.333v149.334
			c0,11.782-9.551,21.333-21.333,21.333H0.333c-11.782,0-21.333-9.551-21.333-21.333V192.33
			C-21,180.548-11.449,170.997,0.333,170.997z"/>
		<path style="fill:#5628B4;" d="M85.667,405.667H0.333C-11.449,405.667-21,415.218-21,427v21.333h128V427
			C107,415.218,97.449,405.667,85.667,405.667L85.667,405.667z"/>
		<path style="fill:#5628B4;" d="M-21-21h128v128c0,5.658-2.248,11.084-6.248,15.085s-9.427,6.248-15.085,6.248H0.333
			C-11.449,128.333-21,118.782-21,107L-21-21L-21-21z"/>
	</g>
	<path style="fill:#4A19A0;" d="M235,171l-21.333,21.333v21.333h-21.333L53.667,352.333c-3.811,3.811-5.299,9.365-3.904,14.571
		c1.395,5.206,5.461,9.272,10.667,10.667c5.206,1.395,10.76-0.093,14.571-3.904l160-160V171z"/>
	<path style="fill:#F7B236;" d="M64.333,363l256-256v42.667h85.333L192.333,363c-16.974,16.974-39.995,26.51-64,26.51
		S81.307,379.974,64.333,363L64.333,363z"/>
	<path style="fill:#F69C11;" d="M175.418,337.248l65.83-65.83c11.782-11.782,11.782-30.885,0-42.667
		c-5.658-5.658-8.837-13.332-8.837-21.333c0-8.002,3.179-15.675,8.837-21.333l53.333-53.333c5.891-5.891,15.442-5.891,21.333,0
		l42.667,42.667c5.891,5.891,5.891,15.442,0,21.333l-161.83,161.83c-5.891,5.891-15.442,5.891-21.333,0
		c-2.829-2.829-4.418-6.666-4.418-10.667C171,343.914,172.589,340.077,175.418,337.248L175.418,337.248z"/>
	<circle style="fill:#5628B4;" cx="277.667" cy="213.667" r="21.333"/>
	<g>
		<path style="fill:#E7455F;" d="M377.705,169.12c23.617-5.334,42.06-23.777,47.394-47.394c0.152-0.645,0.434-1.26,0.566-1.908
			c5.827-27.926-7.49-56.344-32.679-69.736s-56.195-8.538-76.086,11.91s-23.888,51.577-9.806,76.386S349.951,175.715,377.705,169.12
			L377.705,169.12z M402.907,121.241c-2.002,5.982-5.329,11.435-9.732,15.953c-16.668,16.667-43.691,16.667-60.36,0
			c-4.403-4.518-7.73-9.971-9.732-15.953c-6.416-17.633-0.501-37.387,14.551-48.591c15.051-11.205,35.672-11.205,50.723,0
			C403.407,83.855,409.323,103.608,402.907,121.241L402.907,121.241z"/>
		<path style="fill:#E7455F;" d="M384.333,64.333l16.915-16.915c5.891-5.891,15.442-5.891,21.333,0s5.891,15.442,0,21.333
			l-16.915,16.915L384.333,64.333z"/>
	</g>
	<path style="fill:#F57E00;" d="M74.995,352.333l134.259-134.259c5.889-5.889,15.437-5.889,21.326,0l0.007,0.007
		c5.889,5.889,5.889,15.437,0,21.326L96.328,373.666c-5.889,5.889-15.437,5.889-21.326,0l-0.007-0.007
		C69.106,367.77,69.106,358.222,74.995,352.333z"/>
</g>
<g>
</g>
<g>
</g>
<g>
</g>
<g>
</g>
<g>
</g>
<g>
</g>
<g>
</g>
<g>
</g>
<g>
</g>
<g>
</g>
<g>
</g>
<g>
</g>
<g>
</g>
<g>
</g>
<g>
</g>
</svg>
