<svg height="512pt" viewBox="0 0 512 512" width="512pt" xmlns="http://www.w3.org/2000/svg"><path d="m349.867188 469.332031c-37.734376 0-51.199219-21.996093-51.199219-59.730469v-8.535156h-85.335938v8.535156c0 37.734376-13.464843 59.730469-51.199219 59.730469l17.066407 17.066407h162.132812zm0 0" fill="#afb6bb"/><path d="m503.464844 341.332031h-494.929688v-305.695312c0-14.96875 12.132813-27.101563 27.101563-27.101563h440.738281c14.957031 0 27.089844 12.132813 27.089844 27.101563zm0 0" fill="#28384c"/><path d="m8.535156 307.199219v75.300781c0 14.964844 12.132813 27.101562 27.101563 27.101562h440.726562c14.96875 0 27.101563-12.136718 27.101563-27.101562v-75.300781zm0 0" fill="#e7eced"/><path d="m238.933594 341.332031h34.132812v34.132813h-34.132812zm0 0" fill="#28384c"/><path d="m384 503.464844h-256v-17.082032c0-9.414062 7.636719-17.050781 17.050781-17.050781h221.898438c9.414062 0 17.050781 7.636719 17.050781 17.050781zm0 0" fill="#e7eced"/><path d="m133.027344 234.042969-73.292969-72.019531 73.292969-72.03125c6.671875-6.554688 17.371094-6.511719 23.984375.101562 6.707031 6.707031 6.648437 17.613281-.144531 24.234375l-45.933594 47.695313 45.925781 47.683593c6.792969 6.628907 6.859375 17.527344.144531 24.234375-6.605468 6.613282-17.3125 6.664063-23.976562.101563zm0 0" fill="#ebba16"/><path d="m378.972656 234.042969 73.292969-72.019531-73.292969-72.03125c-6.671875-6.554688-17.371094-6.511719-23.984375.101562-6.707031 6.707031-6.648437 17.613281.144531 24.234375l45.933594 47.695313-45.925781 47.683593c-6.792969 6.628907-6.859375 17.527344-.144531 24.234375 6.605468 6.613282 17.3125 6.664063 23.976562.101563zm0 0" fill="#ebba16"/><path d="m223.042969 236.851562c-8.695313-4.386718-12.210938-15.15625-7.808594-23.960937l58.933594-118.058594c4.335937-8.695312 14.746093-12.203125 23.328125-7.878906 8.695312 4.386719 12.210937 15.15625 7.808594 23.964844l-58.929688 118.058593c-4.335938 8.695313-14.746094 12.199219-23.332031 7.875zm0 0" fill="#ebba16"/><g fill="#4d007e"><path d="m476.363281 418.132812h-440.726562c-19.652344 0-35.636719-15.980468-35.636719-35.632812v-346.863281c0-19.652344 15.984375-35.636719 35.636719-35.636719h440.738281c19.640625 0 35.625 15.984375 35.625 35.636719v346.863281c0 19.652344-15.984375 35.632812-35.636719 35.632812zm-440.726562-401.066406c-10.242188 0-18.570313 8.328125-18.570313 18.570313v346.863281c0 10.238281 8.328125 18.566406 18.570313 18.566406h440.738281c10.238281 0 18.566406-8.328125 18.566406-18.566406v-346.863281c-.007812-10.242188-8.335937-18.570313-18.578125-18.570313zm0 0"/><path d="m476.363281 418.132812h-440.726562c-19.652344 0-35.636719-15.980468-35.636719-35.632812v-83.832031h512v83.832031c0 19.652344-15.984375 35.632812-35.636719 35.632812zm-459.296875-102.398437v66.765625c0 10.238281 8.328125 18.566406 18.570313 18.566406h440.726562c10.242188 0 18.570313-8.328125 18.570313-18.566406v-66.765625zm0 0"/><path d="m273.066406 384h-34.132812c-4.710938 0-8.535156-3.824219-8.535156-8.535156v-34.132813c0-4.710937 3.824218-8.53125 8.535156-8.53125h34.132812c4.710938 0 8.535156 3.820313 8.535156 8.53125v34.132813c0 4.710937-3.824218 8.535156-8.535156 8.535156zm-25.601562-17.066406h17.070312v-17.066406h-17.070312zm0 0"/><path d="m384 512h-256c-4.710938 0-8.535156-3.824219-8.535156-8.535156v-17.082032c0-14.105468 11.480468-25.582031 25.585937-25.582031h221.898438c14.105469 0 25.585937 11.476563 25.585937 25.582031v17.082032c0 4.710937-3.824218 8.535156-8.535156 8.535156zm-247.464844-17.066406h238.929688v-8.550782c0-4.691406-3.820313-8.515624-8.515625-8.515624h-221.898438c-4.695312 0-8.515625 3.824218-8.515625 8.515624zm0 0"/><path d="m349.867188 477.867188h-187.734376c-4.710937 0-8.53125-3.824219-8.53125-8.535157 0-4.710937 3.820313-8.53125 8.53125-8.53125 30.3125 0 42.667969-14.832031 42.667969-51.199219 0-4.710937 3.820313-8.535156 8.53125-8.535156h85.335938c4.710937 0 8.53125 3.824219 8.53125 8.535156 0 36.367188 12.355469 51.199219 42.667969 51.199219 4.710937 0 8.53125 3.820313 8.53125 8.53125 0 4.710938-3.820313 8.535157-8.53125 8.535157zm-143.070313-17.066407h98.414063c-8.730469-9.933593-13.6875-24.175781-14.820313-42.667969h-68.78125c-1.132813 18.492188-6.089844 32.734376-14.8125 42.667969zm0 0"/><path d="m144.964844 247.433594c-6.484375 0-12.960938-2.433594-17.921875-7.296875l-73.292969-72.03125c-1.628906-1.601563-2.550781-3.804688-2.550781-6.089844 0-2.289063.921875-4.480469 2.550781-6.085937l73.292969-72.03125c9.96875-9.796876 26.121093-9.726563 36.003906.164062 4.871094 4.863281 7.535156 11.339844 7.492187 18.226562-.042968 6.894532-2.78125 13.328126-7.714843 18.152344l-40.039063 41.582032 40.226563 41.769531c4.746093 4.625 7.484375 11.066406 7.527343 17.953125.042969 6.886718-2.621093 13.363281-7.492187 18.238281-4.976563 4.964844-11.527344 7.449219-18.082031 7.449219zm-73.054688-85.417969 67.097656 65.945313c3.320313 3.257812 8.6875 3.25 11.972657-.050782 1.621093-1.613281 2.5-3.773437 2.492187-6.0625-.019531-2.292968-.921875-4.433594-2.570312-6.03125l-46.113282-47.871094c-3.183593-3.304687-3.183593-8.535156 0-11.84375l45.925782-47.6875c1.828125-1.78125 2.738281-3.921874 2.75-6.21875.007812-2.296874-.871094-4.445312-2.492188-6.058593-3.285156-3.285157-8.652344-3.3125-11.972656-.050781zm0 0"/><path d="m367.035156 247.433594c-6.554687 0-13.105468-2.484375-18.074218-7.449219-4.871094-4.875-7.535157-11.359375-7.492188-18.246094s2.78125-13.328125 7.714844-18.140625l40.039062-41.582031-40.226562-41.773437c-4.746094-4.625-7.484375-11.066407-7.527344-17.960938-.042969-6.886719 2.621094-13.363281 7.492188-18.238281 9.875-9.878907 26.027343-9.957031 36.003906-.152344l73.292968 72.03125c1.621094 1.613281 2.542969 3.804687 2.542969 6.09375 0 2.285156-.921875 4.476563-2.550781 6.082031l-73.292969 72.03125c-4.949219 4.871094-11.4375 7.304688-17.921875 7.304688zm0-153.789063c-2.183594 0-4.359375.828125-6.015625 2.484375-1.621093 1.621094-2.5 3.769532-2.492187 6.058594.019531 2.292969.921875 4.4375 2.570312 6.03125l46.113282 47.871094c3.183593 3.304687 3.183593 8.535156 0 11.847656l-45.925782 47.683594c-1.828125 1.78125-2.738281 3.925781-2.75 6.21875-.007812 2.296875.871094 4.445312 2.492188 6.070312 3.285156 3.285156 8.652344 3.308594 11.972656.039063l67.097656-65.945313-67.097656-65.945312c-1.65625-1.601563-3.804688-2.414063-5.964844-2.414063zm0 0"/><path d="m230.777344 247.246094c-3.976563 0-7.921875-.929688-11.582032-2.773438-12.894531-6.511718-18.097656-22.382812-11.597656-35.398437l58.933594-118.050781c3.140625-6.277344 8.507812-10.945313 15.113281-13.140626 6.535157-2.167968 13.53125-1.644531 19.703125 1.460938 12.890625 6.5 18.097656 22.382812 11.59375 35.386719l-58.929687 118.058593c-3.132813 6.28125-8.5 10.949219-15.113281 13.140626-2.660157.871093-5.390626 1.316406-8.121094 1.316406zm-3.894532-18.015625c2.074219 1.042969 4.4375 1.210937 6.640626.496093 2.269531-.75 4.121093-2.371093 5.214843-4.566406l58.929688-118.050781c2.3125-4.625.511719-10.246094-4.019531-12.527344-2.082032-1.046875-4.4375-1.226562-6.648438-.503906-2.269531.753906-4.121094 2.375-5.210938 4.566406l-58.933593 118.050781c-2.304688 4.625-.492188 10.25 4.027343 12.535157zm0 0"/></g></svg>