<svg width="444.4050048828125px" height="178.41875px" xmlns="http://www.w3.org/2000/svg" viewBox="27.79749755859376 -14.209374999999994 444.4050048828125 178.41875" style="background: rgba(0, 0, 0, 0);" preserveAspectRatio="xMidYMid"><defs><linearGradient id="editing-rainbow-gradient" x1="0" x2="1" y1="0.5" y2="0.5" gradientUnits="objectBoundingBox"><stop offset="0.00" stop-color="#f00"></stop><stop offset="0.17" stop-color="#f90"></stop><stop offset="0.34" stop-color="#ff4"></stop><stop offset="0.51" stop-color="#9f0"></stop><stop offset="0.68" stop-color="#09f"></stop><stop offset="0.85" stop-color="#00f"></stop><stop offset="1.00" stop-color="#90f"></stop></linearGradient><filter id="editing-rainbow" x="-100%" y="-100%" width="300%" height="300%"><feMorphology operator="dilate" radius="1,5" in="SourceGraphic" result="dilate"></feMorphology><feColorMatrix in="dilate" result="color" type="matrix" values="0.7 0 0 0 0  0 0.7 0 0 0  0 0 0.7 0 0  0 0 0 1 0"></feColorMatrix><feOffset dy="5" result="offset"></feOffset><feGaussianBlur stdDeviation="3"></feGaussianBlur><feOffset dy="3"></feOffset><feColorMatrix result="blur" type="matrix" values="0.7 0 0 0 0  0 0.7 0 0 0  0 0 0.7 0 0  0 0 0 1 0"></feColorMatrix><feMerge><feMergeNode in="blur"></feMergeNode><feMergeNode in="offset"></feMergeNode><feMergeNode in="SourceGraphic"></feMergeNode></feMerge></filter></defs><g filter="url(#editing-rainbow)"><g transform="translate(96.10625910758972, 109.2515640258789)"><path d="M10.20 0L-1.30 0L16.80-66L37.70-66L42.30-28.30L60.90-66L78.40-66L80.20-16.60L80.20-16.60Q80.60-6.80 85.40-3.80L85.40-3.80L85.40-3.80Q84.30-1.80 81.10 0.10L81.10 0.10L81.10 0.10Q77.90 2 73.65 2L73.65 2L73.65 2Q69.40 2 66.90 0.80L66.90 0.80L66.90 0.80Q64.40-0.40 63-2.40L63-2.40L63-2.40Q60.50-6 60.50-12.90L60.50-12.90L60.50-43.80L40.80 0L28.40 0L21.40-44.90L10.20 0ZM98.20 0L86.70 0L104.80-66L125.70-66L130.30-28.30L148.90-66L166.40-66L168.20-16.60L168.20-16.60Q168.60-6.80 173.40-3.80L173.40-3.80L173.40-3.80Q172.30-1.80 169.10 0.10L169.10 0.10L169.10 0.10Q165.90 2 161.65 2L161.65 2L161.65 2Q157.40 2 154.90 0.80L154.90 0.80L154.90 0.80Q152.40-0.40 151-2.40L151-2.40L151-2.40Q148.50-6 148.50-12.90L148.50-12.90L148.50-43.80L128.80 0L116.40 0L109.40-44.90L98.20 0ZM198.20 0L176.80 0L189-65.70L189-65.70Q198.90-66.80 213.35-66.80L213.35-66.80L213.35-66.80Q227.80-66.80 234.50-62.60L234.50-62.60L234.50-62.60Q241.20-58.40 241.20-49.95L241.20-49.95L241.20-49.95Q241.20-41.50 236.85-36.20L236.85-36.20L236.85-36.20Q232.50-30.90 225-29.20L225-29.20L225-29.20Q226.70-20.90 230.60-14.20L230.60-14.20L230.60-14.20Q234.20-7.90 238.40-5.90L238.40-5.90L238.40-5.90Q236.90-1.70 233.85 0.15L233.85 0.15L233.85 0.15Q230.80 2 226.45 2L226.45 2L226.45 2Q222.10 2 218.70-0.55L218.70-0.55L218.70-0.55Q215.30-3.10 212.60-7.80L212.60-7.80L212.60-7.80Q206.90-18 206.30-34.10L206.30-34.10L207-34.10L207-34.10Q214.40-34.30 218.10-38.15L218.10-38.15L218.10-38.15Q221.80-42 221.80-50.10L221.80-50.10L221.80-50.10Q221.80-60.20 213.30-60.60L213.30-60.60L211.10-60.60L211.10-60.60Q210.20-60.60 209.70-60.50L209.70-60.50L198.20 0ZM284.90-66.70L284.90-66.70L284.90-66.70Q309.40-66.70 309.40-49.40L309.40-49.40L309.40-49.40Q309.40-39.90 303.30-34.20L303.30-34.20L303.30-34.20Q297.30-28.50 286.80-28.50L286.80-28.50L286.80-28.50Q281.90-28.50 278.10-31.30L278.10-31.30L278.10-31.30Q276.30-32.50 275.10-34.10L275.10-34.10L275.10-34.10Q282.40-34.10 286.25-38.55L286.25-38.55L286.25-38.55Q290.10-43 290.10-51.70L290.10-51.70L290.10-51.70Q290.10-60.40 281.50-60.40L281.50-60.40L279.10-60.40L279.10-60.40Q278.50-60.40 278-60.30L278-60.30L266.50 0L244.80 0L257.10-65.50L257.10-65.50Q267.80-66.50 274-66.60L274-66.60L274-66.60Q280.20-66.70 284.90-66.70Z" fill="url(#editing-rainbow-gradient)"></path></g></g><style>text {
  font-size: 64px;
  font-family: Arial Black;
  dominant-baseline: central;
  text-anchor: middle;
}</style></svg>